<svg width="136" height="35" viewBox="0 0 136 35" fill="none" xmlns="http://www.w3.org/2000/svg">
<g clip-path="url(#clip0_2313_25)">
<path d="M49.1892 10.3135L43.8535 24.5563H38.7175L33.3818 10.3135H38.6332L41.2873 18.488L43.9414 10.3135H49.1929H49.1892Z" fill="white"/>
<path d="M56.7529 20.909C57.7804 20.909 58.6651 20.5671 59.3502 19.9126L62.7754 22.3059C61.3485 24.0995 59.1798 24.9551 56.6411 24.9551C51.7048 24.9551 48.6514 21.6787 48.6514 17.4644C48.6514 13.2501 51.7909 9.91699 56.2418 9.91699C60.6928 9.91699 63.6033 13.1349 63.6033 17.4077C63.6033 18.0056 63.5465 18.576 63.4037 19.1739H53.5584C54.1299 20.5415 55.3846 20.9108 56.7547 20.9108L56.7529 20.909ZM58.9783 15.8957C58.5497 14.4147 57.4379 13.9028 56.2968 13.9028C54.9267 13.9028 53.8991 14.5866 53.4998 15.8957H58.9783Z" fill="white"/>
<path d="M74.073 10.0283V15.2702C72.19 14.985 69.7924 15.8406 69.7924 18.6599V24.5563H65.0557V10.3135H69.7924V12.9628C70.3639 11.0266 72.1607 10.0283 74.073 10.0283Z" fill="white"/>
<path d="M86.003 12.7635C86.384 12.4143 86.8419 12.2186 87.3768 12.1784C87.2742 11.9517 87.1185 11.7524 86.9134 11.5769C86.7082 11.4032 86.3987 11.3154 85.9865 11.3154C85.5744 11.3154 85.2044 11.4087 84.8143 11.5933C84.4223 11.778 84.0523 12.0303 83.7024 12.3485C83.3526 12.6666 83.0082 13.0414 82.6675 13.4729C82.3287 13.9044 82.0045 14.3669 81.6949 14.8588C81.5099 15.1458 81.3194 15.506 81.1234 15.9375C80.9275 16.369 80.7424 16.8425 80.5684 17.3545C80.3926 17.8682 80.2497 18.4186 80.1362 19.0036C80.0226 19.5887 79.9658 20.1793 79.9658 20.7753C79.9658 21.1446 80.0061 21.4737 80.0885 21.7608C80.171 22.0496 80.29 22.2892 80.4439 22.4848C80.5977 22.6804 80.7882 22.8285 81.0154 22.9309C81.2425 23.0333 81.4989 23.0845 81.7865 23.0845C82.1565 23.0845 82.5283 23.0077 82.8983 22.8541C83.2683 22.7005 83.6292 22.5049 83.979 22.269C84.3289 22.0332 84.6531 21.7663 84.9516 21.4682C85.2502 21.1702 85.5011 20.8777 85.7081 20.5906L86.6954 21.3C86.4481 21.6291 86.1441 21.9838 85.785 22.3641C85.4242 22.7444 84.9919 23.0991 84.4882 23.4282C83.9845 23.7573 83.3965 24.0243 82.728 24.229C82.0594 24.4338 81.292 24.538 80.4274 24.538C79.6251 24.538 78.8686 24.4302 78.158 24.2144C77.4473 23.9987 76.8245 23.6897 76.2896 23.2893C75.7548 22.8889 75.3335 22.3952 75.024 21.8101C74.7144 21.2251 74.5605 20.5614 74.5605 19.8227C74.5605 18.4661 74.828 17.2905 75.3628 16.294C75.8977 15.2976 76.5864 14.3688 77.4308 13.5058C78.4181 12.5203 79.5812 11.703 80.9201 11.0558C82.2572 10.4086 83.6566 10.085 85.1183 10.085C85.7759 10.085 86.3895 10.1672 86.9555 10.3318C87.5215 10.4963 88.0105 10.7176 88.4227 10.9936C88.8348 11.2716 89.159 11.6007 89.3953 11.9791C89.6316 12.3594 89.7506 12.7763 89.7506 13.2279C89.7506 14.153 89.5198 14.835 89.0564 15.2775C88.593 15.7199 88.0014 15.9393 87.2815 15.9393C86.6844 15.9393 86.2265 15.7601 85.9078 15.4C85.5891 15.0416 85.4297 14.6357 85.4297 14.1823C85.4297 13.5862 85.6202 13.1145 86.0012 12.7653L86.003 12.7635Z" fill="white"/>
<path d="M102.072 10.6063H103.523C104.407 10.6063 105.067 10.5862 105.499 10.5441C105.931 10.5039 106.261 10.3485 106.486 10.0815H107.814L103.462 21.0516C103.36 21.2582 103.281 21.463 103.232 21.6678C103.18 21.8744 103.155 22.0481 103.155 22.1925C103.155 22.3772 103.206 22.5271 103.308 22.6386C103.411 22.752 103.545 22.8087 103.71 22.8087C103.874 22.8087 104.054 22.7465 104.25 22.624C104.446 22.4997 104.636 22.3369 104.821 22.1303C105.006 21.9256 105.191 21.6934 105.376 21.4374C105.561 21.1814 105.715 20.9181 105.84 20.6512L106.858 21.2984C106.673 21.6275 106.457 21.9768 106.21 22.3461C105.963 22.7154 105.638 23.0646 105.237 23.3937C104.836 23.7228 104.336 23.9952 103.741 24.211C103.144 24.4267 102.402 24.5346 101.517 24.5346C101.002 24.5346 100.539 24.4724 100.129 24.3499C99.7165 24.2274 99.3667 24.0574 99.0791 23.8417C98.7915 23.6259 98.5699 23.3846 98.4161 23.1176C98.2622 22.8507 98.1853 22.5637 98.1853 22.2547C98.1853 22.1523 98.1908 22.0499 98.1999 21.9457C98.2091 21.8433 98.2256 21.7299 98.2457 21.6074L98.1523 21.5453C97.905 21.8744 97.6229 22.2181 97.3024 22.5783C96.9837 22.9385 96.6228 23.2621 96.2217 23.5491C95.8206 23.838 95.3627 24.0739 94.848 24.2585C94.3333 24.4432 93.7471 24.5364 93.0877 24.5364C92.4283 24.5364 91.8074 24.4286 91.2194 24.2128C90.6333 23.9971 90.1131 23.6844 89.6606 23.273C89.2082 22.8617 88.8529 22.3589 88.5964 21.7628C88.3382 21.1668 88.21 20.4995 88.21 19.759C88.21 19.0185 88.3235 18.342 88.5488 17.6637C88.7759 16.9854 89.0745 16.3491 89.4445 15.7531C89.8145 15.157 90.2413 14.5976 90.7249 14.0728C91.2084 13.5481 91.6975 13.0928 92.192 12.7016C93.0969 11.9629 94.1061 11.3413 95.218 10.8366C96.3298 10.3339 97.4709 10.0815 98.645 10.0815C99.5297 10.0815 100.178 10.3083 100.59 10.7599C101.002 11.2115 101.248 11.7252 101.33 12.3012L101.424 12.2701L102.072 10.6063ZM99.9418 16.0602C100.107 15.6287 100.209 15.1826 100.251 14.7201C100.292 14.2575 100.314 13.8004 100.314 13.3488C100.314 12.8972 100.217 12.4401 100.021 12.0397C99.8246 11.6393 99.5206 11.4382 99.1103 11.4382C98.678 11.4382 98.2402 11.6283 97.7988 12.0086C97.3555 12.3889 96.9287 12.857 96.5184 13.411C96.1484 13.9247 95.7821 14.5007 95.4231 15.1369C95.0623 15.7732 94.7435 16.4369 94.4651 17.1243C94.1867 17.8136 93.9614 18.5102 93.7856 19.2196C93.6097 19.929 93.5237 20.622 93.5237 21.3003C93.5237 21.8963 93.6116 22.3333 93.7856 22.6094C93.9596 22.8873 94.1812 23.0262 94.4486 23.0262C94.8186 23.0262 95.2399 22.8361 95.7143 22.4558C96.1869 22.0755 96.6558 21.6074 97.1192 21.0534C97.5826 20.4995 98.0094 19.9126 98.3996 19.2964C98.7897 18.6802 99.0791 18.1464 99.2641 17.6948L99.9437 16.0621L99.9418 16.0602Z" fill="white"/>
<path d="M117.738 10.3135C118.264 10.4671 118.726 10.6828 119.127 10.9607C119.528 11.2386 119.847 11.5623 120.083 11.9316C120.319 12.3009 120.438 12.7123 120.438 13.1639C120.438 13.7599 120.248 14.3103 119.867 14.8131C119.486 15.3159 118.966 15.5682 118.308 15.5682C117.814 15.5682 117.398 15.4091 117.057 15.091C116.718 14.7728 116.548 14.3779 116.548 13.9044C116.548 13.4308 116.696 13.067 116.995 12.7489C117.293 12.4307 117.689 12.2515 118.184 12.2095C118.081 12.0248 117.916 11.8292 117.689 11.6244C117.462 11.4197 117.103 11.3154 116.608 11.3154C116.031 11.3154 115.57 11.5056 115.22 11.8859C114.87 12.2662 114.694 12.7543 114.694 13.3504C114.694 13.9464 114.868 14.4547 115.22 14.9374C115.57 15.4201 115.991 15.9284 116.486 16.4622C116.733 16.7091 116.958 16.965 117.165 17.232C117.37 17.4989 117.555 17.7713 117.72 18.0492C117.885 18.3271 118.013 18.6032 118.107 18.8811C118.2 19.159 118.246 19.4516 118.246 19.7587C118.246 20.4992 118.066 21.1666 117.706 21.7626C117.345 22.3586 116.856 22.8614 116.238 23.2728C115.621 23.6842 114.896 23.9968 114.062 24.2126C113.229 24.4283 112.339 24.5362 111.392 24.5362C110.547 24.5362 109.828 24.4338 109.23 24.2272C108.633 24.0224 108.139 23.75 107.749 23.4099C107.357 23.0717 107.074 22.6914 106.899 22.269C106.723 21.8485 106.637 21.4116 106.637 20.96C106.637 20.097 106.858 19.3985 107.3 18.8647C107.743 18.3308 108.293 18.0639 108.952 18.0639C109.549 18.0639 109.996 18.243 110.295 18.6032C110.593 18.9634 110.742 19.3693 110.742 19.8209C110.742 20.15 110.685 20.4279 110.571 20.6528C110.458 20.8795 110.309 21.0697 110.124 21.2232C109.939 21.3768 109.723 21.4957 109.476 21.5779C109.229 21.6602 108.961 21.7114 108.674 21.7315C108.736 21.9985 108.844 22.2307 108.998 22.4245C109.152 22.6201 109.327 22.7792 109.523 22.9017C109.719 23.026 109.941 23.1174 110.187 23.1796C110.434 23.2417 110.681 23.2728 110.928 23.2728C111.648 23.2728 112.234 23.0717 112.689 22.6713C113.141 22.2709 113.368 21.7004 113.368 20.9618C113.368 20.3877 113.192 19.852 112.842 19.3602C112.493 18.8665 112.091 18.3637 111.639 17.8499C111.412 17.6031 111.201 17.3618 111.005 17.1259C110.809 16.8901 110.644 16.6377 110.511 16.3708C110.377 16.1039 110.269 15.8168 110.187 15.5078C110.104 15.1988 110.064 14.8606 110.064 14.4913C110.064 13.7508 110.223 13.1054 110.542 12.5496C110.861 11.9956 111.298 11.533 111.853 11.1637C112.408 10.7944 113.048 10.5219 113.767 10.3464C114.487 10.1727 115.249 10.085 116.052 10.085C116.649 10.085 117.209 10.1618 117.735 10.3153L117.738 10.3135Z" fill="white"/>
<path d="M125.966 17.417C125.761 17.9509 125.6 18.5067 125.488 19.0808C125.375 19.6567 125.318 20.2418 125.318 20.8378C125.318 21.2071 125.375 21.5308 125.488 21.8087C125.602 22.0866 125.75 22.3224 125.935 22.5181C126.12 22.7137 126.342 22.8563 126.598 22.9496C126.855 23.041 127.128 23.0885 127.417 23.0885C127.89 23.0885 128.347 23.0172 128.791 22.8728C129.234 22.7283 129.65 22.5382 130.042 22.3023C130.432 22.0665 130.784 21.7995 131.091 21.5015C131.401 21.2035 131.657 20.9 131.862 20.5928L132.912 21.2401C132.645 21.6313 132.32 22.0208 131.939 22.4102C131.558 22.8015 131.089 23.1543 130.534 23.4743C129.979 23.7924 129.32 24.0502 128.558 24.244C127.796 24.4397 126.911 24.5366 125.904 24.5366C125.245 24.5366 124.565 24.4397 123.867 24.244C123.167 24.0484 122.53 23.7559 121.953 23.3646C121.376 22.9752 120.904 22.4815 120.534 21.8855C120.164 21.2894 119.979 20.5819 119.979 19.7591C119.979 18.5469 120.292 17.3292 120.92 16.1079C121.548 14.8866 122.448 13.7713 123.622 12.7638C124.671 11.8606 125.792 11.1878 126.987 10.7454C128.181 10.3029 129.364 10.0835 130.536 10.0835C131.196 10.0835 131.848 10.1511 132.496 10.2846C133.145 10.4181 133.731 10.6082 134.256 10.8551C134.782 11.1019 135.203 11.4145 135.522 11.7948C135.841 12.1751 136 12.6121 136 13.1039C136 13.6378 135.877 14.1315 135.63 14.5831C135.383 15.0347 135.002 15.446 134.487 15.8154C134.178 16.0201 133.824 16.2212 133.423 16.4169C133.022 16.6125 132.516 16.7862 131.91 16.9416C131.302 17.0952 130.582 17.214 129.749 17.2963C128.915 17.3786 127.922 17.4188 126.77 17.4188H125.968L125.966 17.417ZM127.078 16.1536C127.675 16.1536 128.272 16.0311 128.869 15.7843C129.467 15.5374 130.033 15.1169 130.567 14.5209C130.917 14.1095 131.174 13.7201 131.339 13.3507C131.503 12.9814 131.586 12.6413 131.586 12.3342C131.586 12.0672 131.513 11.8314 131.37 11.6248C131.225 11.42 131.009 11.3158 130.721 11.3158C130.371 11.3158 130.036 11.4237 129.718 11.6394C129.399 11.8552 129.084 12.1075 128.776 12.3945C128.364 12.8059 127.963 13.3087 127.573 13.9047C127.181 14.5008 126.791 15.2504 126.4 16.1536H127.08H127.078Z" fill="white"/>
<path d="M12.6697 24.7264V15.7858C12.6697 14.7912 11.8619 13.9849 10.8655 13.9849H1.8042C0.807769 13.9849 0 14.7912 0 15.7858V24.8288C0 25.8234 0.807769 26.6297 1.8042 26.6297H10.7593C11.8125 26.6297 12.6642 27.4817 12.6642 28.5312V33.1953C12.6642 34.1899 13.472 34.9962 14.4684 34.9962H19.2454C20.2418 34.9962 21.0496 34.1899 21.0496 33.1953V28.427C21.0496 27.4323 20.2418 26.626 19.2454 26.626H14.5728C13.5196 26.626 12.6679 25.774 12.6679 24.7246L12.6697 24.7264Z" fill="#9DDE32"/>
<path d="M26.3044 0H15.7997C14.7416 0 13.8838 0.856232 13.8838 1.91245V12.398C13.8838 13.4542 14.7416 14.3105 15.7997 14.3105H26.3044C27.3625 14.3105 28.2203 13.4542 28.2203 12.398V1.91245C28.2203 0.856232 27.3625 0 26.3044 0Z" fill="#9DDE32"/>
<path d="M29.5414 18.437H26.9019C26.0117 18.437 25.29 19.1574 25.29 20.046V22.6806C25.29 23.5692 26.0117 24.2895 26.9019 24.2895H29.5414C30.4316 24.2895 31.1532 23.5692 31.1532 22.6806V20.046C31.1532 19.1574 30.4316 18.437 29.5414 18.437Z" fill="#9DDE32"/>
</g>
<defs>
<clipPath id="clip0_2313_25">
<rect width="136" height="35" fill="white"/>
</clipPath>
</defs>
</svg>
