<svg width="92" height="40" viewBox="0 0 92 40" fill="none" xmlns="http://www.w3.org/2000/svg">
<path d="M39.619 24.9303L29.9047 23.814L36 31.0698L27.4285 36.2791L22.8571 27.721L18.4762 36.2791L9.90474 31.0698L15.8095 23.814L6.09521 24.9303V14.8837L15.8095 16L9.90474 8.74421L18.4762 3.53491L22.8571 12.0931L27.4285 3.53491L33.1428 7.0698L35.2381 9.67445L29.9047 16L34.0952 15.6279L39.4285 16.5582V24.9303H39.619Z" fill="#BEFF05"/>
<path d="M15.2383 3.34888H19.8097L22.8573 14.1396L25.9049 3.34888H30.4764L25.3335 18.9768H20.3811L15.2383 3.34888Z" fill="black"/>
<path d="M42.0953 15.2559V18.9768H31.8096V3.34888H41.9048V7.06981H35.8096V9.30237H41.3334V13.0233H35.8096V15.2559H42.0953Z" fill="black"/>
<path d="M49.5238 13.9535H48V18.9768H44V3.34888H50.4762C53.7143 3.34888 56.1905 5.58143 56.1905 8.74423C56.1905 10.6047 55.0476 12.2791 53.5238 13.2093L56.7619 18.9768H52.381L49.5238 13.9535ZM48 10.6047H50.2857C51.2381 10.6047 52 9.86051 52 8.93027C52 7.81399 51.2381 7.25585 50.2857 7.25585H48V10.6047Z" fill="black"/>
<path d="M57.1431 15.4419L60.5716 13.3954C61.1431 14.6977 62.0954 15.4419 63.8097 15.4419C65.3335 15.4419 65.7145 14.8838 65.7145 14.3256C65.7145 13.3954 64.5716 13.2094 62.6669 12.6512C60.1907 11.907 57.905 10.6047 57.905 7.81402C57.905 5.02332 60.3812 2.97681 63.4288 2.97681C66.0954 2.97681 68.1907 4.27913 69.3335 6.51169L65.905 8.5582C65.3335 7.44192 64.5716 6.88378 63.4288 6.88378C62.4764 6.88378 61.905 7.44192 61.905 8.00006C61.905 8.74425 62.4764 9.11634 64.5716 9.67448C67.0478 10.4187 69.7145 11.3489 69.7145 14.5117C69.7145 17.6745 67.2383 19.3489 63.6193 19.3489C60.1907 19.3489 57.905 17.8605 57.1431 15.4419Z" fill="black"/>
<path d="M33.7144 28.4651C33.7144 23.8139 37.1429 20.2791 42.0953 20.2791C44.9524 20.2791 47.6191 21.7674 48.9525 24L45.5239 26.0465C44.9524 24.9302 43.6191 24.186 42.0953 24.186C39.4286 24.186 37.9048 25.8604 37.9048 28.4651C37.9048 31.0698 39.6191 32.7442 42.0953 32.7442C43.6191 32.7442 44.9524 32 45.5239 30.8837L49.1429 32.9302C47.8096 35.1628 45.1429 36.6511 42.2858 36.6511C37.1429 36.6511 33.7144 33.1163 33.7144 28.4651Z" fill="black"/>
<path d="M59.6193 34.0465H54.2859L53.524 36.279H49.1431L54.4764 20.6511H59.4288L64.7621 36.279H60.3812L59.6193 34.0465ZM58.4764 30.5116L56.7621 25.1162L55.2383 30.5116H58.4764Z" fill="black"/>
<path d="M64.5713 32.7442L67.9999 30.6977C68.5713 32 69.5237 32.7442 71.238 32.7442C72.7618 32.7442 73.1427 32.186 73.1427 31.6279C73.1427 30.6977 71.9999 30.5116 70.0951 29.9535C67.6189 29.2093 65.3332 27.907 65.3332 25.1163C65.3332 22.3256 67.8094 20.2791 70.857 20.2791C73.5237 20.2791 75.6189 21.5814 76.7618 23.8139L73.3332 25.8604C72.7618 24.7442 71.9999 24.186 70.857 24.186C69.9046 24.186 69.3332 24.7442 69.3332 25.3023C69.3332 26.0465 69.9046 26.4186 71.9999 26.9767C74.476 27.7209 77.1427 28.6511 77.1427 31.8139C77.1427 34.9767 74.6665 36.6511 71.0475 36.6511C67.6189 36.6511 65.5237 34.9767 64.5713 32.7442Z" fill="black"/>
<path d="M88.9522 32.5581V36.279H78.6665V20.6511H88.7617V24.3721H82.6665V26.6046H88.1903V30.3255H82.6665V32.5581H88.9522Z" fill="black"/>
</svg>
