<?xml version="1.0" encoding="utf-8"?>
<!-- Generator: Adobe Illustrator 28.0.0, SVG Export Plug-In . SVG Version: 6.00 Build 0)  -->
<svg version="1.1" id="Layer_1" xmlns="http://www.w3.org/2000/svg" xmlns:xlink="http://www.w3.org/1999/xlink" x="0px" y="0px"
	 viewBox="0 0 600 600" style="enable-background:new 0 0 600 600;" xml:space="preserve">
<style type="text/css">
	.st0{fill:#9DDE32;}
</style>
<g>
	<path class="st0" d="M251.8,420V271.5c0-16.5-13.4-29.9-29.9-29.9H71.7c-16.5,0-29.9,13.4-29.9,29.9v150.2
		c0,16.5,13.4,29.9,29.9,29.9h148.5c17.4,0,31.6,14.1,31.6,31.6v77.5c0,16.5,13.4,29.9,29.9,29.9h79.2c16.5,0,29.9-13.4,29.9-29.9
		v-79.2c0-16.5-13.4-29.9-29.9-29.9h-77.5C266,451.6,251.8,437.5,251.8,420z"/>
	<path class="st0" d="M477.9,9.4H303.7c-17.5,0-31.8,14.2-31.8,31.8v174.1c0,17.5,14.2,31.8,31.8,31.8h174.1
		c17.5,0,31.8-14.2,31.8-31.8V41.1C509.6,23.6,495.4,9.4,477.9,9.4z"/>
	<path class="st0" d="M531.5,315.5h-43.8c-14.8,0-26.7,12-26.7,26.7V386c0,14.8,12,26.7,26.7,26.7h43.8c14.8,0,26.7-12,26.7-26.7
		v-43.8C558.2,327.5,546.3,315.5,531.5,315.5z"/>
</g>
</svg>
